<svg xmlns="http://www.w3.org/2000/svg" viewBox="0 0 277 64" width="277" height="64" role="img" aria-label="aicoute">
  <svg x="0" y="0" width="66.78" height="64" viewBox="-6 6 96 92" overflow="visible">
    <path d="M10 10 H70 a14 14 0 0 1 14 14 V64 a14 14 0 0 1 -14 14 H30 l-12 14 v-14 H10 a14 14 0 0 1 -14 -14 V24 a14 14 0 0 1 14 -14 Z" fill="#C75D3A" stroke="#C75D3A" stroke-width="2" stroke-linejoin="round"/>
    <g stroke="#FBF5EE" stroke-width="5" stroke-linecap="round">
      <line x1="20" y1="40" x2="20" y2="48"/>
      <line x1="30" y1="30" x2="30" y2="58"/>
      <line x1="40" y1="38" x2="40" y2="50"/>
      <line x1="52" y1="24" x2="52" y2="64"/>
      <line x1="62" y1="34" x2="62" y2="54"/>
      <line x1="72" y1="40" x2="72" y2="48"/>
    </g>
  </svg>
  <path d="M98.24 47.83L98.24 47.25L97.79 47.11L97.79 30.78Q97.79 28.57 96.67 27.39Q95.55 26.22 93.54 26.22Q91.63 26.22 90.65 27Q89.67 27.79 89.67 28.91L89.67 31.26Q89.67 32.77 88.66 33.60Q87.66 34.42 85.86 34.42Q84.30 34.42 83.48 33.65Q82.67 32.88 82.67 31.57Q82.67 29.80 84.07 28.14Q85.47 26.47 88.19 25.39Q90.90 24.31 94.82 24.31Q99.78 24.31 102.20 26.39Q104.62 28.46 104.62 31.96L104.62 46.80Q104.62 47.64 104.96 48.04Q105.30 48.45 105.91 48.45Q106.56 48.45 106.86 48.14Q107.17 47.83 107.40 47.55Q107.54 47.36 107.70 47.23Q107.87 47.11 108.10 47.11Q108.43 47.11 108.59 47.34Q108.74 47.58 108.74 47.97Q108.74 48.84 108.12 49.78Q107.51 50.72 106.32 51.38Q105.13 52.03 103.36 52.03Q101.01 52.03 99.63 50.93Q98.24 49.82 98.24 47.83M81.44 45.51Q81.44 42.09 84.51 39.95Q87.57 37.81 93 37.81Q94.88 37.81 96.41 38.13Q97.93 38.45 99.08 38.99L98.55 40.69Q97.48 40.22 96.38 39.94Q95.27 39.66 93.98 39.66Q91.44 39.66 89.99 40.90Q88.55 42.15 88.55 44.36Q88.55 46.52 89.74 47.68Q90.93 48.84 92.81 48.84Q94.52 48.84 96.08 48.06Q97.65 47.27 98.74 45.87L99.36 47.36Q97.74 49.60 95.13 50.82Q92.53 52.03 89.59 52.03Q85.98 52.03 83.71 50.24Q81.44 48.45 81.44 45.51M122.40 26.11L122.40 47.11Q122.40 47.95 122.67 48.34Q122.94 48.73 123.47 48.90L124.62 49.18Q125.15 49.35 125.40 49.61Q125.65 49.88 125.65 50.30Q125.65 50.77 125.30 51.07Q124.95 51.36 124.20 51.36L113.61 51.36Q112.88 51.36 112.55 51.07Q112.21 50.77 112.21 50.30Q112.21 49.91 112.45 49.63Q112.69 49.35 113.22 49.18L114.42 48.90Q114.96 48.73 115.22 48.34Q115.49 47.95 115.49 47.13L115.49 30.50Q115.49 29.80 115.26 29.51Q115.04 29.21 114.56 29.13L112.88 29.05Q112.38 28.93 112.16 28.71Q111.93 28.49 111.93 28.12Q111.93 27.70 112.20 27.44Q112.46 27.17 113.16 26.92L118.04 25.15Q119.04 24.76 119.66 24.61Q120.28 24.45 120.70 24.45Q121.56 24.45 121.98 24.90Q122.40 25.35 122.40 26.11M118.32 19.69Q116.27 19.69 115.03 18.62Q113.78 17.54 113.78 15.80Q113.78 14.07 115.03 13.02Q116.27 11.97 118.32 11.97Q120.36 11.97 121.62 13.03Q122.88 14.09 122.88 15.80Q122.88 17.54 121.62 18.62Q120.36 19.69 118.32 19.69" fill="#C75D3A"/>
  <path d="M154.30 31.82Q154.30 33.27 153.29 34.27Q152.28 35.26 150.63 35.26Q149.03 35.26 148.16 34.35Q147.30 33.44 147.30 31.99L147.30 31.15Q147.30 29.19 146.02 28Q144.75 26.81 142.54 26.81Q140.58 26.81 139.04 27.94Q137.50 29.07 136.61 31.17Q135.73 33.27 135.73 36.16Q135.73 39.74 136.95 42.22Q138.17 44.70 140.31 45.97Q142.45 47.25 145.20 47.25Q147.72 47.25 149.59 46.14Q151.47 45.03 152.39 43.16Q152.84 42.65 153.11 42.46Q153.37 42.26 153.71 42.26Q154.13 42.26 154.31 42.63Q154.49 42.99 154.46 43.49Q154.32 45.82 152.83 47.76Q151.33 49.71 148.81 50.87Q146.29 52.03 143.04 52.03Q139.04 52.03 135.96 50.37Q132.88 48.70 131.14 45.71Q129.40 42.71 129.40 38.68Q129.40 34.59 131.15 31.34Q132.90 28.09 136.07 26.19Q139.23 24.29 143.49 24.29Q146.82 24.29 149.24 25.32Q151.66 26.36 152.98 28.07Q154.30 29.77 154.30 31.82M172.94 24.29Q177.17 24.29 180.39 26.05Q183.61 27.81 185.42 30.95Q187.22 34.09 187.22 38.20Q187.22 42.15 185.38 45.29Q183.53 48.42 180.27 50.23Q177 52.03 172.72 52.03Q168.49 52.03 165.27 50.26Q162.05 48.48 160.25 45.33Q158.44 42.18 158.44 38.12Q158.44 34.11 160.29 30.99Q162.14 27.87 165.40 26.08Q168.66 24.29 172.94 24.29M174.93 49.32Q177.06 48.98 178.38 47.47Q179.69 45.96 180.10 43.34Q180.50 40.72 179.86 37.11Q179.22 33.50 177.90 31.13Q176.58 28.77 174.75 27.72Q172.92 26.67 170.73 27Q168.60 27.34 167.29 28.85Q165.97 30.36 165.58 32.98Q165.19 35.60 165.80 39.21Q166.45 42.82 167.76 45.19Q169.08 47.55 170.91 48.60Q172.75 49.65 174.93 49.32M212.14 47.64L212.14 46.10L211.92 45.96L211.92 30.50Q211.92 29.83 211.71 29.52Q211.50 29.21 211 29.16L209.32 29.05Q208.81 28.96 208.60 28.72Q208.39 28.49 208.39 28.12Q208.39 27.70 208.64 27.44Q208.90 27.17 209.60 26.92L214.47 25.15Q215.45 24.79 216.06 24.64Q216.68 24.48 217.21 24.48Q218.02 24.48 218.43 24.93Q218.84 25.38 218.84 26.13L218.84 47.11Q218.84 47.95 219.10 48.34Q219.37 48.73 219.90 48.90L221.05 49.18Q221.58 49.35 221.83 49.61Q222.08 49.88 222.08 50.30Q222.08 50.77 221.73 51.07Q221.38 51.36 220.66 51.36L215.42 51.36Q213.99 51.36 213.07 50.34Q212.14 49.32 212.14 47.64M194.31 43.63L194.31 30.50Q194.31 29.83 194.10 29.52Q193.89 29.21 193.38 29.16L191.70 29.05Q191.20 28.96 190.99 28.72Q190.78 28.49 190.78 28.12Q190.78 27.70 191.03 27.44Q191.28 27.17 191.98 26.92L196.86 25.15Q197.89 24.79 198.49 24.64Q199.10 24.48 199.54 24.48Q200.38 24.48 200.80 24.93Q201.22 25.38 201.22 26.13L201.22 42.60Q201.22 45.23 202.50 46.53Q203.77 47.83 205.90 47.83Q207.22 47.83 208.73 47.18Q210.24 46.52 211.89 45.09L213.07 44.08L214.27 45.31L213.12 46.35Q209.68 49.49 207.10 50.76Q204.53 52.03 202.23 52.03Q198.68 52.03 196.49 49.75Q194.31 47.47 194.31 43.63M227.94 27.45L226.56 27.09Q225.86 26.86 225.58 26.58Q225.30 26.30 225.30 25.94Q225.30 25.43 225.65 25.17Q226 24.90 226.59 24.90L228.33 24.90Q229.06 24.90 229.52 24.65Q229.98 24.40 230.40 23.75L233 19.58Q233.51 18.88 233.98 18.56Q234.46 18.24 234.96 18.24Q235.52 18.24 235.82 18.59Q236.11 18.94 236.11 19.55L236.11 43.86Q236.11 45.82 236.90 46.84Q237.68 47.86 239.08 47.86Q240.12 47.86 240.69 47.48Q241.26 47.11 241.60 46.60Q241.94 46.10 242.24 45.72Q242.55 45.34 243.03 45.34Q243.42 45.34 243.63 45.61Q243.84 45.87 243.84 46.46Q243.84 47.86 242.89 49.09Q241.94 50.33 240.26 51.11Q238.58 51.89 236.42 51.89Q233.09 51.89 231.14 50.19Q229.20 48.48 229.20 45.01L229.20 29.13Q229.20 28.40 228.92 28.04Q228.64 27.67 227.94 27.45M240.79 27.42L233.23 27.42L233.23 24.90L242.27 24.90Q242.92 24.90 243.25 25.14Q243.59 25.38 243.59 25.85Q243.59 26.53 242.92 26.97Q242.24 27.42 240.79 27.42M272.88 34.84Q272.88 36.27 272.06 37.03Q271.25 37.78 269.68 37.78L251.99 37.78L251.99 35.77L264.45 35.77Q265.88 35.77 265.88 34.51Q265.88 30.81 264.39 28.81Q262.91 26.81 260.42 26.81Q258.48 26.81 257 27.94Q255.52 29.07 254.68 31.17Q253.84 33.27 253.84 36.16Q253.84 41.65 256.44 44.45Q259.04 47.25 263.33 47.25Q265.93 47.25 267.89 46.14Q269.85 45.03 270.80 43.10Q271.22 42.60 271.50 42.40Q271.78 42.21 272.09 42.21Q272.51 42.21 272.69 42.58Q272.88 42.96 272.88 43.47Q272.74 45.79 271.20 47.75Q269.66 49.71 267.07 50.87Q264.48 52.03 261.14 52.03Q257.14 52.03 254.06 50.37Q250.98 48.70 249.24 45.71Q247.51 42.71 247.51 38.68Q247.51 34.48 249.17 31.24Q250.84 28.01 253.95 26.15Q257.06 24.29 261.34 24.29Q264.92 24.29 267.51 25.63Q270.10 26.97 271.49 29.35Q272.88 31.73 272.88 34.84" fill="#3D2817"/>
</svg>
